<svg xmlns="http://www.w3.org/2000/svg" viewBox="0 0 425.2 425.2"><defs><style>.cls-1{fill:#231f20;}.cls-2{font-size:94.21px;font-family:LeagueGothic-Regular, League Gothic;letter-spacing:0.1em;}.cls-2,.cls-4,.cls-5,.cls-8{fill:#fff;}.cls-3{letter-spacing:0.08em;}.cls-4{font-size:34.26px;font-family:ACaslonPro-SemiboldItalic, Adobe Caslon Pro;font-weight:600;font-style:italic;letter-spacing:0.02em;}.cls-5{font-size:28.55px;font-family:Raleway;letter-spacing:-0.03em;}.cls-6{letter-spacing:0.02em;}.cls-7{letter-spacing:-0.01em;}</style></defs><title>logo_travelguide</title><g id="Layer_2" data-name="Layer 2"><g id="Layer_1-2" data-name="Layer 1"><g id="_15" data-name="15"><path class="cls-1" d="M415.92,34H400.46a9.29,9.29,0,0,1-9.28-9.28V9.28A9.27,9.27,0,0,0,381.9,0H43.29A9.27,9.27,0,0,0,34,9.28V24.74A9.29,9.29,0,0,1,24.74,34H9.28A9.27,9.27,0,0,0,0,43.29V381.9a9.27,9.27,0,0,0,9.28,9.28H24.74A9.29,9.29,0,0,1,34,400.46v15.46a9.28,9.28,0,0,0,9.27,9.28H381.9a9.28,9.28,0,0,0,9.28-9.28V400.46a9.29,9.29,0,0,1,9.28-9.28h15.46a9.28,9.28,0,0,0,9.28-9.28V43.29A9.28,9.28,0,0,0,415.92,34Z"/><text class="cls-2" transform="translate(95.34 194.17)">TR<tspan class="cls-3" x="82.62" y="0">A</tspan><tspan x="125.21" y="0">VEL</tspan><tspan x="11.02" y="99.92" xml:space="preserve"> GUIDE</tspan></text><text class="cls-4" transform="translate(177.06 375.53)">1980</text><text class="cls-5" transform="translate(140.69 70.62)">V<tspan class="cls-6" x="18.47" y="0">ALENCI</tspan><tspan class="cls-7" x="125.33" y="0">A</tspan></text><rect class="cls-8" x="59.52" y="200" width="18.56" height="18.56" rx="3.25" transform="translate(168.13 12.65) rotate(45)"/><rect class="cls-8" x="347.87" y="200" width="18.56" height="18.56" rx="3.25" transform="translate(252.59 -191.25) rotate(45)"/></g></g></g></svg>